#define 922b2a74e4ec4e1a94f94b04185b72ddUu1FrXpURboDAJvo_width 65
#define 922b2a74e4ec4e1a94f94b04185b72ddUu1FrXpURboDAJvo_height 65
static char 922b2a74e4ec4e1a94f94b04185b72ddUu1FrXpURboDAJvo_bits[] = {
  0x00, 0x00, 0x00, 0x00, 0x00, 0x00, 0x00, 0x00, 0x00, 0x00, 0x00, 0x00, 
  0x00, 0x00, 0x00, 0x00, 0x00, 0x00, 0x00, 0x00, 0x00, 0x00, 0x00, 0x00, 
  0x00, 0x00, 0x00, 0x00, 0x00, 0x00, 0x00, 0x00, 0x00, 0x00, 0x00, 0x00, 
  0x00, 0x00, 0x00, 0x00, 0x00, 0x00, 0x00, 0x00, 0x00, 0x00, 0x00, 0x00, 
  0x00, 0x00, 0x00, 0x00, 0x00, 0x00, 0x00, 0x00, 0x00, 0x00, 0x00, 0x00, 
  0x00, 0x00, 0x00, 0x00, 0x00, 0x00, 0x00, 0x00, 0x00, 0x00, 0x00, 0x00, 
  0x00, 0x00, 0x00, 0x00, 0x00, 0x00, 0x00, 0x00, 0x00, 0x00, 0x00, 0x00, 
  0x00, 0x01, 0x00, 0x00, 0x00, 0x00, 0x00, 0x00, 0x00, 0x00, 0x01, 0x00, 
  0x00, 0x00, 0x00, 0x00, 0x00, 0x00, 0x00, 0x01, 0x00, 0x00, 0x00, 0x00, 
  0x00, 0x00, 0x00, 0x00, 0x01, 0x00, 0x00, 0x00, 0x00, 0x00, 0x00, 0x00, 
  0x00, 0x01, 0x00, 0x00, 0x00, 0x00, 0x00, 0x00, 0x00, 0x00, 0x01, 0x00, 
  0x00, 0x00, 0x00, 0x00, 0x00, 0x00, 0x00, 0x01, 0x00, 0x00, 0x00, 0x00, 
  0x00, 0x00, 0x00, 0x00, 0x81, 0x00, 0x00, 0x00, 0x00, 0x00, 0x00, 0x00, 
  0x04, 0xC1, 0x00, 0x00, 0x00, 0x00, 0x00, 0x00, 0x04, 0x0C, 0x43, 0x60, 
  0x00, 0x00, 0x00, 0x00, 0x00, 0x08, 0x8C, 0x63, 0xF0, 0x00, 0x00, 0x00, 
  0x00, 0x00, 0x18, 0x98, 0x63, 0x88, 0x00, 0x00, 0x00, 0x00, 0x00, 0x70, 
  0x98, 0x73, 0xD8, 0x01, 0x00, 0x00, 0x00, 0x00, 0xE0, 0xB8, 0xFF, 0x0F, 
  0x03, 0x00, 0x00, 0x00, 0x00, 0xC0, 0xF9, 0xDF, 0xEF, 0x03, 0x00, 0x00, 
  0x00, 0x00, 0x80, 0xF3, 0xFF, 0xFF, 0x01, 0x00, 0x00, 0x00, 0x80, 0x80, 
  0xFF, 0xFF, 0x1F, 0x04, 0x00, 0x00, 0x00, 0x00, 0x0F, 0xFF, 0xFF, 0xDF, 
  0x01, 0x00, 0x00, 0x00, 0x00, 0x7C, 0xBF, 0xFF, 0x7F, 0x00, 0x00, 0x00, 
  0x00, 0x00, 0xF0, 0xFF, 0xFF, 0x1F, 0x00, 0x00, 0x00, 0x00, 0x00, 0xC0, 
  0xFE, 0xFF, 0x1F, 0x00, 0x00, 0x00, 0x00, 0x00, 0xC0, 0xFF, 0xFF, 0x0F, 
  0x00, 0x00, 0x00, 0x00, 0x00, 0x70, 0xFF, 0xFB, 0x1F, 0x00, 0x00, 0x00, 
  0x00, 0xFE, 0x7F, 0xFF, 0xFF, 0xFF, 0xFF, 0x00, 0x00, 0x00, 0x00, 0x7F, 
  0xFF, 0xF7, 0xFF, 0x01, 0x00, 0x00, 0x00, 0x00, 0x40, 0xFF, 0xF7, 0x0F, 
  0x00, 0x00, 0x00, 0x00, 0x00, 0xC0, 0xFF, 0xF7, 0x07, 0x00, 0x00, 0x00, 
  0x00, 0x00, 0xE0, 0xFF, 0xF7, 0x1F, 0x00, 0x00, 0x00, 0x00, 0x00, 0xF8, 
  0xFE, 0xFF, 0x3F, 0x00, 0x00, 0x00, 0x00, 0x00, 0xBC, 0xFF, 0xFF, 0xF1, 
  0x00, 0x00, 0x00, 0x00, 0x00, 0x03, 0xFF, 0xFF, 0x01, 0x03, 0x00, 0x00, 
  0x00, 0x00, 0x80, 0xFF, 0xFF, 0x03, 0x00, 0x00, 0x00, 0x00, 0x00, 0xC0, 
  0xBF, 0x3F, 0x07, 0x00, 0x00, 0x00, 0x00, 0x00, 0xE0, 0xF8, 0x3F, 0x0E, 
  0x00, 0x00, 0x00, 0x00, 0x00, 0x60, 0x98, 0x33, 0x0C, 0x00, 0x00, 0x00, 
  0x00, 0x00, 0x30, 0x98, 0x73, 0x18, 0x00, 0x00, 0x00, 0x00, 0x00, 0x18, 
  0x8C, 0x63, 0x20, 0x00, 0x00, 0x00, 0x00, 0x00, 0x04, 0x0C, 0x43, 0x40, 
  0x00, 0x00, 0x00, 0x00, 0x00, 0x00, 0x04, 0x43, 0x00, 0x00, 0x00, 0x00, 
  0x00, 0x00, 0x00, 0x02, 0x81, 0x00, 0x00, 0x00, 0x00, 0x00, 0x00, 0x00, 
  0x02, 0x81, 0x00, 0x00, 0x00, 0x00, 0x00, 0x00, 0x00, 0x00, 0x01, 0x00, 
  0x00, 0x00, 0x00, 0x00, 0x00, 0x00, 0x00, 0x01, 0x00, 0x00, 0x00, 0x00, 
  0x00, 0x00, 0x00, 0x00, 0x01, 0x00, 0x00, 0x00, 0x00, 0x00, 0x00, 0x00, 
  0x00, 0x01, 0x00, 0x00, 0x00, 0x00, 0x00, 0x00, 0x00, 0x00, 0x01, 0x00, 
  0x00, 0x00, 0x00, 0x00, 0x00, 0x00, 0x00, 0x01, 0x00, 0x00, 0x00, 0x00, 
  0x00, 0x00, 0x00, 0x00, 0x00, 0x00, 0x00, 0x00, 0x00, 0x00, 0x00, 0x00, 
  0x00, 0x00, 0x00, 0x00, 0x00, 0x00, 0x00, 0x00, 0x00, 0x00, 0x00, 0x00, 
  0x00, 0x00, 0x00, 0x00, 0x00, 0x00, 0x00, 0x00, 0x00, 0x00, 0x00, 0x00, 
  0x00, 0x00, 0x00, 0x00, 0x00, 0x00, 0x00, 0x00, 0x00, 0x00, 0x00, 0x00, 
  0x00, 0x00, 0x00, 0x00, 0x00, 0x00, 0x00, 0x00, 0x00, 0x00, 0x00, 0x00, 
  0x00, 0x00, 0x00, 0x00, 0x00, 0x00, 0x00, 0x00, 0x00, 0x00, 0x00, 0x00, 
  0x00, 0x00, 0x00, 0x00, 0x00, 0x00, 0x00, 0x00, 0x00, };
