#define 922b2a74e4ec4e1a94f94b04185b72ddUu1FrXpURboDAJvo_width  65
#define 922b2a74e4ec4e1a94f94b04185b72ddUu1FrXpURboDAJvo_height 65
static unsigned char 922b2a74e4ec4e1a94f94b04185b72ddUu1FrXpURboDAJvo_bits[] = {
 0x00,0x00,0x00,0x00,0x00,0x00,0x00,0x00,0xfe,0x00,0x00,0x00,
 0x00,0x00,0x00,0x00,0x00,0xfe,0x00,0x00,0x00,0x00,0x00,0x00,
 0x00,0x00,0xfe,0x00,0x00,0x00,0x00,0x00,0x00,0x00,0x00,0xfe,
 0x00,0x00,0x00,0x00,0x00,0x00,0x00,0x00,0xfe,0x00,0x00,0x00,
 0x00,0x00,0x00,0x00,0x00,0xfe,0x00,0x00,0x00,0x00,0x00,0x00,
 0x00,0x00,0xfe,0x00,0x00,0x00,0x00,0x00,0x00,0x00,0x00,0xfe,
 0x00,0x00,0x00,0x00,0x00,0x00,0x00,0x00,0xfe,0x00,0x00,0x00,
 0x00,0x01,0x00,0x00,0x00,0xfe,0x00,0x00,0x00,0x00,0x01,0x00,
 0x00,0x00,0xfe,0x00,0x00,0x00,0x00,0x01,0x00,0x00,0x00,0xfe,
 0x00,0x00,0x00,0x00,0x01,0x00,0x00,0x00,0xfe,0x00,0x00,0x00,
 0x00,0x01,0x00,0x00,0x00,0xfe,0x00,0x00,0x00,0x00,0x01,0x00,
 0x00,0x00,0xfe,0x00,0x00,0x00,0x00,0x01,0x00,0x00,0x00,0xfe,
 0x00,0x00,0x00,0x00,0x81,0x00,0x00,0x00,0xfe,0x00,0x00,0x00,
 0x04,0xc1,0x00,0x00,0x00,0xfe,0x00,0x00,0x00,0x0c,0x43,0x60,
 0x00,0x00,0xfe,0x00,0x00,0x08,0x8c,0x63,0xf0,0x00,0x00,0xfe,
 0x00,0x00,0x18,0x98,0x63,0x88,0x00,0x00,0xfe,0x00,0x00,0x70,
 0x98,0x73,0xd8,0x01,0x00,0xfe,0x00,0x00,0xe0,0xb8,0xff,0x0f,
 0x03,0x00,0xfe,0x00,0x00,0xc0,0xf9,0xff,0xef,0x03,0x00,0xfe,
 0x00,0x00,0x80,0xf3,0xff,0xff,0x00,0x00,0xfe,0x00,0x80,0x80,
 0xff,0xff,0x1f,0x04,0x00,0xfe,0x00,0x00,0x0f,0xff,0xff,0xdf,
 0x03,0x00,0xfe,0x00,0x00,0x7c,0xff,0xff,0x7f,0x00,0x00,0xfe,
 0x00,0x00,0xf0,0xbf,0xf9,0x1f,0x00,0x00,0xfe,0x00,0x00,0xc0,
 0x9f,0xf8,0x1f,0x00,0x00,0xfe,0x00,0x00,0xc0,0xcf,0xf0,0x1f,
 0x00,0x00,0xfe,0x00,0x00,0xf0,0x67,0xe6,0x1f,0x00,0x00,0xfe,
 0x00,0xfe,0xff,0x33,0xcf,0xff,0xff,0x00,0xfe,0x00,0x00,0xff,
 0x99,0xdf,0xff,0x01,0x00,0xfe,0x00,0x00,0xc0,0xcc,0x9f,0x0f,
 0x00,0x00,0xfe,0x00,0x00,0xc0,0xe6,0x3f,0x07,0x00,0x00,0xfe,
 0x00,0x00,0xe0,0xf7,0x7f,0x1f,0x00,0x00,0xfe,0x00,0x00,0xf8,
 0xff,0xff,0x3f,0x00,0x00,0xfe,0x00,0x00,0xbc,0xff,0xff,0xf1,
 0x00,0x00,0xfe,0x00,0x00,0x03,0xff,0xff,0x01,0x03,0x00,0xfe,
 0x00,0x00,0x80,0xff,0xff,0x03,0x00,0x00,0xfe,0x00,0x00,0xc0,
 0xff,0x3f,0x07,0x00,0x00,0xfe,0x00,0x00,0xe0,0xf8,0x3f,0x0e,
 0x00,0x00,0xfe,0x00,0x00,0x60,0x98,0x33,0x0c,0x00,0x00,0xfe,
 0x00,0x00,0x30,0x98,0x73,0x18,0x00,0x00,0xfe,0x00,0x00,0x18,
 0x8c,0x63,0x20,0x00,0x00,0xfe,0x00,0x00,0x04,0x0c,0x43,0x40,
 0x00,0x00,0xfe,0x00,0x00,0x00,0x04,0x43,0x00,0x00,0x00,0xfe,
 0x00,0x00,0x00,0x02,0x81,0x00,0x00,0x00,0xfe,0x00,0x00,0x00,
 0x02,0x81,0x00,0x00,0x00,0xfe,0x00,0x00,0x00,0x00,0x01,0x00,
 0x00,0x00,0xfe,0x00,0x00,0x00,0x00,0x01,0x00,0x00,0x00,0xfe,
 0x00,0x00,0x00,0x00,0x01,0x00,0x00,0x00,0xfe,0x00,0x00,0x00,
 0x00,0x01,0x00,0x00,0x00,0xfe,0x00,0x00,0x00,0x00,0x01,0x00,
 0x00,0x00,0xfe,0x00,0x00,0x00,0x00,0x01,0x00,0x00,0x00,0xfe,
 0x00,0x00,0x00,0x00,0x00,0x00,0x00,0x00,0xfe,0x00,0x00,0x00,
 0x00,0x00,0x00,0x00,0x00,0xfe,0x00,0x00,0x00,0x00,0x00,0x00,
 0x00,0x00,0xfe,0x00,0x00,0x00,0x00,0x00,0x00,0x00,0x00,0xfe,
 0x00,0x00,0x00,0x00,0x00,0x00,0x00,0x00,0xfe,0x00,0x00,0x00,
 0x00,0x00,0x00,0x00,0x00,0xfe,0x00,0x00,0x00,0x00,0x00,0x00,
 0x00,0x00,0xfe,0x00,0x00,0x00,0x00,0x00,0x00,0x00,0x00,0xfe,
 0x00,0x00,0x00,0x00,0x00,0x00,0x00,0x00,0xfe};
