#define ec0180a12f2e4687f152c64a339425d6kFm7dNXFS3wmLHuM_width  64
#define ec0180a12f2e4687f152c64a339425d6kFm7dNXFS3wmLHuM_height 64
static unsigned char ec0180a12f2e4687f152c64a339425d6kFm7dNXFS3wmLHuM_bits[] = {
 0x00,0x00,0x00,0x00,0x00,0x00,0x00,0x00,0x00,0x00,0x00,0x00,
 0x01,0x00,0x00,0x00,0x00,0x00,0x00,0x00,0x01,0x00,0x00,0x00,
 0x00,0x00,0x00,0x00,0x01,0x00,0x00,0x00,0x00,0x00,0x00,0x80,
 0x01,0x00,0x00,0x00,0x00,0x00,0x00,0x80,0x01,0x00,0x00,0x00,
 0x00,0x00,0x00,0x80,0x01,0x00,0x00,0x00,0x00,0x00,0x00,0x80,
 0x01,0x00,0x00,0x00,0x00,0x00,0x40,0x80,0x01,0x08,0x00,0x00,
 0x00,0x00,0xc0,0x80,0x01,0x0c,0x00,0x00,0x00,0x00,0x80,0x80,
 0x01,0x06,0x00,0x00,0x00,0x08,0x80,0x80,0x01,0x03,0x20,0x00,
 0x00,0x10,0x00,0x81,0x01,0x01,0x18,0x00,0x00,0x20,0x00,0x81,
 0x81,0x01,0x0c,0x00,0x00,0x40,0x00,0x83,0x81,0x01,0x06,0x00,
 0x00,0xc0,0x00,0x87,0xc3,0x00,0x03,0x00,0x00,0x80,0x01,0xc6,
 0xe3,0x80,0x01,0x00,0x00,0x00,0x07,0xce,0xe3,0xe0,0x00,0x00,
 0x00,0x00,0x0e,0xce,0x73,0x70,0x00,0x00,0x00,0x00,0x1c,0xde,
 0x73,0x38,0x00,0x00,0x00,0x00,0x3c,0xde,0x7b,0x3c,0x00,0x00,
 0x00,0x00,0xf8,0x3c,0x78,0x1f,0x00,0x00,0x00,0x07,0xf0,0x0d,
 0xa0,0x0f,0x00,0x03,0x00,0x0c,0xe0,0x03,0x80,0x07,0xe0,0x00,
 0x00,0xf0,0xc0,0x01,0x80,0x03,0x3f,0x00,0x00,0xc0,0xcf,0x00,
 0x00,0xf3,0x07,0x00,0x00,0x80,0x7f,0x00,0x00,0xfe,0x01,0x00,
 0x00,0x00,0x3e,0x00,0x00,0x7c,0x00,0x00,0x00,0x00,0x38,0x30,
 0x0c,0x3c,0x00,0x00,0x00,0x00,0x30,0x30,0x0e,0x08,0x00,0x00,
 0x00,0x00,0x1c,0x18,0x1e,0x38,0x00,0x00,0xe0,0xff,0x1f,0x0c,
 0x33,0xf8,0xff,0x03,0xfe,0xff,0x1f,0x8c,0x61,0xf8,0xff,0x7f,
 0x00,0xe0,0x1f,0x86,0x60,0xf8,0x07,0x00,0x00,0x00,0x00,0xc3,
 0xc0,0x00,0x00,0x00,0x00,0x00,0x30,0x63,0x80,0x1d,0x00,0x00,
 0x00,0x00,0xbc,0x21,0x80,0x3d,0x00,0x00,0x00,0x00,0x7e,0x00,
 0x00,0xfc,0x00,0x00,0x00,0x80,0x3f,0x00,0x00,0xfc,0x03,0x00,
 0x00,0xe0,0xc7,0x00,0x00,0xc3,0x0f,0x00,0x00,0x70,0xe0,0x01,
 0x80,0x07,0x38,0x00,0x00,0x0c,0xe0,0x03,0xc0,0x0f,0x60,0x00,
 0x00,0x03,0xf0,0x1c,0x38,0x0f,0x80,0x00,0x00,0x00,0x78,0xfe,
 0x7b,0x1e,0x00,0x00,0x00,0x00,0x3c,0xde,0x7b,0x3c,0x00,0x00,
 0x00,0x00,0x1e,0xce,0x73,0x70,0x00,0x00,0x00,0x00,0x06,0xce,
 0xf3,0xe0,0x00,0x00,0x00,0x00,0x03,0xc7,0xe3,0xc0,0x00,0x00,
 0x00,0x80,0x01,0x83,0xc3,0x80,0x01,0x00,0x00,0xc0,0x00,0x83,
 0xc3,0x00,0x02,0x00,0x00,0x20,0x00,0x81,0x81,0x01,0x04,0x00,
 0x00,0x10,0x80,0x81,0x01,0x01,0x08,0x00,0x00,0x08,0xc0,0x80,
 0x01,0x01,0x10,0x00,0x00,0x00,0x40,0x80,0x01,0x02,0x00,0x00,
 0x00,0x00,0x20,0x80,0x01,0x02,0x00,0x00,0x00,0x00,0x00,0x80,
 0x01,0x02,0x00,0x00,0x00,0x00,0x00,0x80,0x01,0x00,0x00,0x00,
 0x00,0x00,0x00,0x80,0x01,0x00,0x00,0x00,0x00,0x00,0x00,0x80,
 0x01,0x00,0x00,0x00,0x00,0x00,0x00,0x80,0x01,0x00,0x00,0x00,
 0x00,0x00,0x00,0x00,0x01,0x00,0x00,0x00,0x00,0x00,0x00,0x00,
 0x01,0x00,0x00,0x00,0x00,0x00,0x00,0x00,0x01,0x00,0x00,0x00,
 0x00,0x00,0x00,0x00,0x00,0x00,0x00,0x00};
